# xmcd
#
# Track frame offsets:
#	150
#	11225
#	26551
#	46149
#	67245
#	86003
#	109595
#	128603
#	151816
#	168753
#	191102
#	207880
#	230370
#	233040
#
# Disc length: 3451 seconds
#
# Revision: 0
# Processed by: cddbd v1.5.2PL0 Copyright (c) Steve Scherf et al.
# Submitted via: dBpowerAMP V4.0
#
DISCID=af0d790e
DTITLE=Cleve Francis and Friends - Story Time Live at the Birchmere
DYEAR=2006
DGENRE=Country
TTITLE0=Intro
TTITLE1=I'll Stop Loving You
TTITLE2=Dancing Boy
TTITLE3=Never Been a Honkey Tonk
TTITLE4=Departure
TTITLE5=Poncho and Lefty
TTITLE6=Decadel
TTITLE7=It's Probably Me
TTITLE8=Ashoken Farewell
TTITLE9=I Turn to You
TTITLE10=A Love Like This
TTITLE11=Daddy Cut My Hair
TTITLE12=Sailing to Philadelphia Into
TTITLE13=Sailing to Philadelphia
EXTD=
EXTT0=
EXTT1=
EXTT2=
EXTT3=
EXTT4=
EXTT5=
EXTT6=
EXTT7=
EXTT8=
EXTT9=
EXTT10=
EXTT11=
EXTT12=
EXTT13=
PLAYORDER=
